<?xml version="1.0" encoding="utf-8"?>
<!-- Generator: Adobe Illustrator 28.0.0, SVG Export Plug-In . SVG Version: 6.00 Build 0)  -->
<svg version="1.1" id="Слой_1" xmlns="http://www.w3.org/2000/svg" xmlns:xlink="http://www.w3.org/1999/xlink" x="0px" y="0px"
	 viewBox="0 0 200 200" style="enable-background:new 0 0 200 200;" xml:space="preserve">
<style type="text/css">
	.st0{fill:#F9A800;stroke:#000000;stroke-width:10;stroke-miterlimit:10;}
	.st1{fill:none;}
</style>
<path class="st0" d="M46.1,90.7c0,26.8,18.8,50.2,54,82c35.2-31.9,54-55.2,54-82c0-29.8-23.9-54-53.7-54S46.1,60.9,46.1,90.7
	L46.1,90.7z"/>
<path class="st0" d="M47.3,102.2"/>
<path class="st0" d="M49.2,110.1"/>
<g>
	<circle cx="100.1" cy="91" r="9"/>
	<path d="M93.8,80.1L80,56.2C68.2,64,60.7,76.9,59.9,91h27.6C87.5,86.3,90,82.3,93.8,80.1z"/>
	<path d="M112.7,91h27.6c-0.9-14.1-8.3-27-20.1-34.8l-13.8,23.9C110.1,82.3,112.7,86.3,112.7,91z"/>
	<path d="M100.1,103.6c-2.3,0-4.4-0.6-6.3-1.7L80,125.8c12.7,6.3,27.5,6.3,40.2,0l-13.8-23.9C104.5,103,102.4,103.6,100.1,103.6z"/>
</g>
<line class="st1" x1="100" y1="91" x2="100" y2="256.1"/>
</svg>
