<?xml version="1.0" encoding="utf-8"?>
<!-- Generator: Adobe Illustrator 16.0.3, SVG Export Plug-In . SVG Version: 6.00 Build 0)  -->
<!DOCTYPE svg PUBLIC "-//W3C//DTD SVG 1.1//EN" "http://www.w3.org/Graphics/SVG/1.1/DTD/svg11.dtd">
<svg version="1.1" id="Слой_1" xmlns="http://www.w3.org/2000/svg" xmlns:xlink="http://www.w3.org/1999/xlink" x="0px" y="0px"
	 width="200px" height="200px" viewBox="0 0 200 200" enable-background="new 0 0 200 200" xml:space="preserve">
<rect x="222.5" fill="#F9FFFF" width="390" height="200"/>
<path fill="#F9A800" stroke="#000000" stroke-width="10" stroke-miterlimit="10" d="M154,90.736c0-29.824-24.177-54-54-54
	s-54,24.177-54,54c0,15.331,6.455,28.782,16.661,38.989L100,167.063l37.318-37.317C149.75,117.314,154,106.078,154,90.736z"/>
<circle cx="100" cy="91" r="9"/>
<path d="M93.705,80.101L79.899,56.2C68.104,63.998,60.66,76.886,59.801,90.999h27.6C87.4,86.345,89.943,82.283,93.705,80.101z"/>
<path d="M112.6,90.999H140.2c-0.859-14.113-8.304-27.001-20.099-34.799l-13.807,23.901C110.059,82.283,112.6,86.345,112.6,90.999z"
	/>
<path d="M100,103.6c-2.294,0-4.439-0.625-6.295-1.701l-13.806,23.9c12.656,6.318,27.544,6.318,40.201,0l-13.806-23.9
	C104.439,102.975,102.294,103.6,100,103.6z"/>
<path fill="#F9A800" stroke="#000000" stroke-width="10" stroke-miterlimit="10" d="M379,96.475c0-29.824-24.177-54-54-54
	s-54,24.177-54,54c0,15.331,6.455,28.782,16.661,38.989L325,172.802l37.318-37.317C374.75,123.054,379,111.817,379,96.475z"/>
<g>
	<circle fill="#FF0000" cx="325" cy="96.739" r="9"/>
	<path fill="#FF0000" d="M318.705,85.84l-13.807-23.901c-11.795,7.798-19.238,20.686-20.098,34.799h27.6
		C312.4,92.084,314.943,88.022,318.705,85.84z"/>
	<path fill="#FF0000" d="M337.6,96.738H365.2c-0.859-14.113-8.304-27.001-20.099-34.799L331.295,85.84
		C335.059,88.022,337.6,92.084,337.6,96.738z"/>
	<path fill="#FF0000" d="M325,109.339c-2.294,0-4.439-0.625-6.295-1.701l-13.807,23.9c12.656,6.318,27.545,6.318,40.201,0
		l-13.806-23.9C329.439,108.714,327.294,109.339,325,109.339z"/>
</g>
<path fill="#F9A800" stroke="#FF0000" stroke-width="10" stroke-miterlimit="10" d="M565,94.576c0-29.824-24.177-54-54-54
	s-54,24.177-54,54c0,15.331,6.455,28.782,16.661,38.989L511,170.902l37.318-37.317C560.75,121.154,565,109.918,565,94.576z"/>
<g>
	<circle fill="#FF0000" cx="511" cy="94.84" r="9"/>
	<path fill="#FF0000" d="M504.705,83.941L490.898,60.04c-11.795,7.798-19.238,20.686-20.098,34.799h27.6
		C498.4,90.185,500.943,86.123,504.705,83.941z"/>
	<path fill="#FF0000" d="M523.6,94.839H551.2c-0.859-14.113-8.304-27.001-20.099-34.799l-13.807,23.901
		C521.059,86.123,523.6,90.185,523.6,94.839z"/>
	<path fill="#FF0000" d="M511,107.439c-2.294,0-4.439-0.625-6.295-1.701l-13.807,23.9c12.656,6.318,27.545,6.318,40.201,0
		l-13.806-23.9C515.439,106.814,513.294,107.439,511,107.439z"/>
</g>
</svg>
